<?xml version="1.0" standalone="no"?>
<svg xmlns:xlink="http://www.w3.org/1999/xlink" id="wave" style="transform:rotate(0deg); transition: 0.3s" viewBox="0 0 1440 450" version="1.1" xmlns="http://www.w3.org/2000/svg"><defs><linearGradient id="sw-gradient-0" x1="0" x2="0" y1="1" y2="0"><stop stop-color="rgba(188.896, 7.246, 227.138, 1)" offset="0%"/><stop stop-color="rgba(138.167, 11, 255, 1)" offset="100%"/></linearGradient></defs><path style="transform:translate(0, 0px); opacity:1" fill="url(#sw-gradient-0)" d="M0,0L16,67.5C32,135,64,270,96,315C128,360,160,315,192,292.5C224,270,256,270,288,285C320,300,352,330,384,337.5C416,345,448,330,480,337.5C512,345,544,375,576,375C608,375,640,345,672,285C704,225,736,135,768,127.5C800,120,832,195,864,217.5C896,240,928,210,960,180C992,150,1024,120,1056,127.5C1088,135,1120,180,1152,172.5C1184,165,1216,105,1248,67.5C1280,30,1312,15,1344,7.5C1376,0,1408,0,1440,37.5C1472,75,1504,150,1536,195C1568,240,1600,255,1632,262.5C1664,270,1696,270,1728,240C1760,210,1792,150,1824,172.5C1856,195,1888,300,1920,337.5C1952,375,1984,345,2016,337.5C2048,330,2080,345,2112,307.5C2144,270,2176,180,2208,135C2240,90,2272,90,2288,90L2304,90L2304,450L2288,450C2272,450,2240,450,2208,450C2176,450,2144,450,2112,450C2080,450,2048,450,2016,450C1984,450,1952,450,1920,450C1888,450,1856,450,1824,450C1792,450,1760,450,1728,450C1696,450,1664,450,1632,450C1600,450,1568,450,1536,450C1504,450,1472,450,1440,450C1408,450,1376,450,1344,450C1312,450,1280,450,1248,450C1216,450,1184,450,1152,450C1120,450,1088,450,1056,450C1024,450,992,450,960,450C928,450,896,450,864,450C832,450,800,450,768,450C736,450,704,450,672,450C640,450,608,450,576,450C544,450,512,450,480,450C448,450,416,450,384,450C352,450,320,450,288,450C256,450,224,450,192,450C160,450,128,450,96,450C64,450,32,450,16,450L0,450Z"/></svg>