<?xml version="1.0" standalone="no"?>
<svg xmlns:xlink="http://www.w3.org/1999/xlink" id="wave" style="transform:rotate(0deg); transition: 0.3s" viewBox="0 0 1440 490" version="1.1" xmlns="http://www.w3.org/2000/svg"><defs><linearGradient id="sw-gradient-0" x1="0" x2="0" y1="1" y2="0"><stop stop-color="rgba(211.522, 62, 243, 1)" offset="0%"/><stop stop-color="rgba(146.433, 11, 255, 1)" offset="100%"/></linearGradient></defs><path style="transform:translate(0, 0px); opacity:1" fill="url(#sw-gradient-0)" d="M0,343L26.7,285.8C53.3,229,107,114,160,57.2C213.3,0,267,0,320,49C373.3,98,427,196,480,236.8C533.3,278,587,261,640,285.8C693.3,310,747,376,800,334.8C853.3,294,907,147,960,138.8C1013.3,131,1067,261,1120,294C1173.3,327,1227,261,1280,253.2C1333.3,245,1387,294,1440,294C1493.3,294,1547,245,1600,196C1653.3,147,1707,98,1760,114.3C1813.3,131,1867,212,1920,236.8C1973.3,261,2027,229,2080,228.7C2133.3,229,2187,261,2240,236.8C2293.3,212,2347,131,2400,122.5C2453.3,114,2507,180,2560,236.8C2613.3,294,2667,343,2720,367.5C2773.3,392,2827,392,2880,359.3C2933.3,327,2987,261,3040,253.2C3093.3,245,3147,294,3200,294C3253.3,294,3307,245,3360,245C3413.3,245,3467,294,3520,302.2C3573.3,310,3627,278,3680,253.2C3733.3,229,3787,212,3813,204.2L3840,196L3840,490L3813.3,490C3786.7,490,3733,490,3680,490C3626.7,490,3573,490,3520,490C3466.7,490,3413,490,3360,490C3306.7,490,3253,490,3200,490C3146.7,490,3093,490,3040,490C2986.7,490,2933,490,2880,490C2826.7,490,2773,490,2720,490C2666.7,490,2613,490,2560,490C2506.7,490,2453,490,2400,490C2346.7,490,2293,490,2240,490C2186.7,490,2133,490,2080,490C2026.7,490,1973,490,1920,490C1866.7,490,1813,490,1760,490C1706.7,490,1653,490,1600,490C1546.7,490,1493,490,1440,490C1386.7,490,1333,490,1280,490C1226.7,490,1173,490,1120,490C1066.7,490,1013,490,960,490C906.7,490,853,490,800,490C746.7,490,693,490,640,490C586.7,490,533,490,480,490C426.7,490,373,490,320,490C266.7,490,213,490,160,490C106.7,490,53,490,27,490L0,490Z"/></svg>